<svg width="62" height="62" viewBox="0 0 62 62" fill="none" xmlns="http://www.w3.org/2000/svg">
<path d="M31 0C35.1109 0 39.0533 1.63303 41.9602 4.53984C44.867 7.44666 46.5 11.3891 46.5 15.5C46.5 19.6109 44.867 23.5533 41.9602 26.4602C39.0533 29.367 35.1109 31 31 31C26.8891 31 22.9467 29.367 20.0398 26.4602C17.133 23.5533 15.5 19.6109 15.5 15.5C15.5 11.3891 17.133 7.44666 20.0398 4.53984C22.9467 1.63303 26.8891 0 31 0ZM31 38.75C48.1275 38.75 62 45.6862 62 54.25V62H0V54.25C0 45.6862 13.8725 38.75 31 38.75Z" fill="#000013"/>
</svg>
