<svg width="199" height="201" viewBox="0 0 199 201" fill="none" xmlns="http://www.w3.org/2000/svg">
<path d="M144.727 73.0737H144.727C139.731 73.0737 135.682 77.1632 135.682 82.2079V91.3422C135.682 96.3868 139.731 100.476 144.727 100.476H144.727C149.723 100.476 153.773 96.3868 153.773 91.3422V82.2079C153.773 77.1632 149.723 73.0737 144.727 73.0737Z" fill="#361200"/>
<path d="M54.2728 73.0737H54.2727C49.2771 73.0737 45.2273 77.1632 45.2273 82.2079V91.3422C45.2273 96.3868 49.2771 100.476 54.2727 100.476H54.2728C59.2684 100.476 63.3182 96.3868 63.3182 91.3422V82.2079C63.3182 77.1632 59.2684 73.0737 54.2728 73.0737Z" fill="#552A1F"/>
<path d="M72.3636 109.611V137.013C72.3636 139.436 71.4106 141.759 69.7142 143.472C68.0179 145.185 65.7172 146.147 63.3181 146.147H36.1818C31.4303 146.147 26.7254 147.092 22.3356 148.929C17.9458 150.765 13.9572 153.456 10.5974 156.849C7.23761 160.242 4.57248 164.269 2.75418 168.702C0.93587 173.135 0 177.886 0 182.684V200.953H199V182.684C199 177.886 198.064 173.135 196.246 168.702C194.427 164.269 191.762 160.242 188.402 156.849C185.043 153.456 181.054 150.765 176.664 148.929C172.274 147.092 167.57 146.147 162.818 146.147H135.682C133.283 146.147 130.982 145.185 129.286 143.472C127.589 141.759 126.636 139.436 126.636 137.013V109.611H72.3636Z" fill="#552A1F"/>
<path d="M135.681 146.147C133.282 146.147 130.982 145.185 129.285 143.472C127.589 141.759 126.636 139.436 126.636 137.013V109.611H99.4995V146.147H108.545V155.282H90.4541V164.416C90.4541 166.838 91.4071 169.162 93.1034 170.875C94.7998 172.588 97.1005 173.55 99.4995 173.55C101.899 173.55 104.199 172.588 105.896 170.875C107.592 169.162 108.545 166.838 108.545 164.416H144.727V146.147H135.681Z" fill="#361200"/>
<path d="M162.818 146.147H135.682C135.682 150.946 134.746 155.697 132.928 160.129C131.109 164.562 128.444 168.59 125.084 171.983C121.725 175.376 117.736 178.067 113.346 179.903C108.956 181.739 104.251 182.684 99.4999 182.684C94.7485 182.684 90.0435 181.739 85.6538 179.903C81.264 178.067 77.2753 175.376 73.9156 171.983C70.5558 168.59 67.8906 164.562 66.0723 160.129C64.254 155.697 63.3181 150.946 63.3181 146.147H36.1818C31.4303 146.147 26.7254 147.092 22.3356 148.929C17.9458 150.765 13.9571 153.456 10.5973 156.849C7.23751 160.241 4.57238 164.269 2.75409 168.702C0.935797 173.135 -4.34305e-05 177.886 1.51168e-09 182.684V200.953H199V182.684C199 177.886 198.064 173.135 196.246 168.702C194.428 164.269 191.762 160.241 188.403 156.849C185.043 153.456 181.054 150.765 176.664 148.929C172.275 147.092 167.57 146.147 162.818 146.147Z" fill="#CAECF6"/>
<path d="M18.0911 200.953H9.04565V182.684C9.05351 175.419 11.915 168.454 17.0024 163.316C22.0897 158.179 28.9874 155.29 36.182 155.282V164.416C31.3859 164.422 26.788 166.349 23.3967 169.773C20.0053 173.198 18.0973 177.841 18.0911 182.684V200.953Z" fill="#E7F6FA"/>
<path d="M0 191.818H199V200.953H0V191.818Z" fill="#3EBCDD"/>
<path d="M99.5 191.818H199V200.953H99.5V191.818Z" fill="#00A0D2"/>
<path d="M63.3181 173.55H1.27919C0.46905 176.527 0.0391669 179.597 0 182.684H63.3181V173.55Z" fill="#3EBCDD"/>
<path d="M54.2728 164.416V155.282H12.4784C9.51495 157.895 6.99486 160.981 5.01807 164.416H54.2728Z" fill="#3EBCDD"/>
<path d="M135.682 173.55V182.684H199C198.961 179.597 198.531 176.527 197.721 173.55H135.682Z" fill="#00A0D2"/>
<path d="M144.728 164.416H193.982C192.005 160.981 189.485 157.895 186.522 155.282H144.728V164.416Z" fill="#00A0D2"/>
<path d="M99.5 200.953V191.818C111.491 191.804 122.986 186.988 131.465 178.426C139.944 169.864 144.713 158.256 144.727 146.147H153.773C153.757 160.678 148.034 174.609 137.859 184.883C127.685 195.158 113.889 200.937 99.5 200.953Z" fill="#00A0D2"/>
<path d="M99.5 200.953C85.1108 200.937 71.3155 195.158 61.1408 184.883C50.9661 174.609 45.243 160.678 45.2273 146.147H54.2727C54.2868 158.256 59.0564 169.864 67.5351 178.426C76.0138 186.988 87.5093 191.804 99.5 191.818V200.953Z" fill="#3EBCDD"/>
<path d="M99.4997 9.13423H99.4997C74.5214 9.13423 54.2725 29.5818 54.2725 54.8053V91.3422C54.2725 116.566 74.5214 137.013 99.4997 137.013H99.4997C124.478 137.013 144.727 116.566 144.727 91.3422V54.8053C144.727 29.5818 124.478 9.13423 99.4997 9.13423Z" fill="#8F492B"/>
<path d="M126.636 18.4753V54.8053H108.545V63.9395H126.636V82.2079C129.035 82.2079 131.336 83.1702 133.032 84.8832C134.729 86.5962 135.682 88.9196 135.682 91.3421C135.682 93.7647 134.729 96.088 133.032 97.801C131.336 99.514 129.035 100.476 126.636 100.476H99.5V127.879H108.545V136.093C118.759 133.986 127.938 128.381 134.531 120.227C141.124 112.072 144.726 101.869 144.727 91.3421V54.8053C144.727 39.912 137.561 26.8123 126.636 18.4753Z" fill="#552A1F"/>
<path d="M108.545 118.745H117.591V127.879H108.545V118.745Z" fill="#012334"/>
<path d="M81.4092 118.745H90.4546V127.879H81.4092V118.745Z" fill="#062D3C"/>
<path d="M54.2725 63.9395H63.3179V82.2079H54.2725V63.9395Z" fill="#133846"/>
<path d="M135.682 63.9395H144.727V82.2079H135.682V63.9395Z" fill="#012334"/>
<path d="M90.4541 100.476H108.545V109.611H90.4541V100.476Z" fill="#062D3C"/>
<path d="M99.5 100.476H108.545V109.611H99.5V100.476Z" fill="#012334"/>
<path d="M81.4092 109.611H90.4546V118.745H81.4092V109.611Z" fill="#062D3C"/>
<path d="M81.4092 100.476H90.4546V109.611H81.4092V100.476Z" fill="#552A1F"/>
<path d="M108.545 109.611H117.591V118.745H108.545V109.611Z" fill="#012334"/>
<path d="M108.546 100.476H117.591V109.611H108.546V100.476Z" fill="#361200"/>
<path d="M108.546 127.879H117.591V137.013H108.546V127.879Z" fill="#361200"/>
<path d="M90.4551 91.3423V100.476H108.546V73.0737H126.637V63.9396H99.5004V91.3423H90.4551Z" fill="#361200"/>
<path d="M117.59 73.0737H126.636V82.2079H117.59V73.0737Z" fill="#290300"/>
<path d="M72.3635 73.0737H81.409V82.2079H72.3635V73.0737Z" fill="#290300"/>
<path d="M90.4541 109.611H108.545V118.745H90.4541V109.611Z" fill="#C6262D"/>
<path d="M18.0913 155.282H36.1822V164.416H18.0913V155.282Z" fill="#72CEE6"/>
<path d="M9.04565 173.55H18.0911V182.684H9.04565V173.55Z" fill="#72CEE6"/>
<path d="M9.04565 191.818H18.0911V200.953H9.04565V191.818Z" fill="#72CEE6"/>
<path d="M135.682 9.13422C135.682 9.13422 117.591 9.13422 99.5001 0C81.4092 9.13422 63.3183 9.13422 63.3183 9.13422C63.3183 9.13422 54.2728 27.4026 27.1365 36.5369C27.1365 54.8053 45.2274 63.9395 45.2274 63.9395H153.773C153.773 63.9395 171.864 54.8053 171.864 36.5369C144.727 27.4026 135.682 9.13422 135.682 9.13422Z" fill="#CAECF6"/>
<path d="M135.682 9.13422C135.682 9.13422 117.591 9.13422 99.5 0V63.9395H153.773C153.773 63.9395 171.864 54.8053 171.864 36.5369C144.727 27.4026 135.682 9.13422 135.682 9.13422Z" fill="#95DAEC"/>
<path d="M99.5001 45.671L99.4394 45.6708C94.652 45.6546 90.0661 43.7228 86.6865 40.2986C83.3069 36.8744 81.4092 32.237 81.4092 27.4025V18.2684H117.591V27.4026C117.591 29.8017 117.123 32.1772 116.214 34.3937C115.305 36.6101 113.972 38.624 112.292 40.3204C110.612 42.0167 108.618 43.3624 106.423 44.2804C104.228 45.1985 101.876 45.671 99.5001 45.671Z" fill="#E29971"/>
<path d="M99.5 82.2079C144.727 82.2079 153.773 73.0737 153.773 73.0737V63.9395C153.773 63.9395 135.682 54.8053 99.5 54.8053C63.3182 54.8053 45.2273 63.9395 45.2273 63.9395V73.0737C45.2273 73.0737 54.2727 82.2079 99.5 82.2079Z" fill="#062D3C"/>
<path d="M99.5 54.8053V45.671C104.296 45.6647 108.894 43.738 112.285 40.3134C115.677 36.8888 117.585 32.2458 117.591 27.4026V18.2684H126.636V27.4026C126.628 34.6678 123.767 41.6332 118.68 46.7704C113.592 51.9077 106.695 54.7973 99.5 54.8053Z" fill="#00A0D2"/>
<path d="M46.4551 63.6005L43.0454 55.1442C65.8534 45.7781 98.1396 45.6711 99.5 45.6711V54.8053C99.182 54.8053 67.6024 54.9212 46.4551 63.6005Z" fill="#72CEE6"/>
<path d="M99.5 45.671V36.5368C101.899 36.5352 104.198 35.5723 105.894 33.8597C107.59 32.147 108.544 29.8247 108.545 27.4026V18.2684H117.591V27.4026C117.585 32.2458 115.677 36.8888 112.285 40.3134C108.894 43.738 104.296 45.6647 99.5 45.671Z" fill="#CB7956"/>
<path d="M59.6786 72.9845L57.9119 64.0287C58.8482 63.8414 81.1703 59.3724 99.4997 59.3724V68.5066C82.0625 68.5066 59.9082 72.9399 59.6786 72.9845Z" fill="#345460"/>
<path d="M154.214 64.4658L152.094 63.6094C132.175 55.5813 99.7297 54.8142 99.4028 54.8053L99.5883 45.671C100.94 45.6978 131.636 46.4203 153.075 54.2165C155.698 52.0579 160.672 47.1607 162.792 39.8284L171.484 42.3795C167.553 55.9827 156.617 62.9583 156.158 63.2526L154.214 64.4658Z" fill="#00A0D2"/>
<path d="M67.0194 57.1424C57.6118 53.0569 54.2639 43.8246 54.2639 36.5369H63.3094C63.3094 38.0533 63.6627 45.7424 70.5881 48.7574L67.0194 57.1424Z" fill="#72CEE6"/>
<path d="M90.4541 27.4026H99.4995V36.5368H90.4541V27.4026Z" fill="#F5D9CB"/>
</svg>
